<svg xmlns="http://www.w3.org/2000/svg" version="1.1" xmlns:xlink="http://www.w3.org/1999/xlink" xmlns:svgjs="http://svgjs.dev/svgjs" width="1000" height="999" viewBox="0 0 1000 999"><g transform="matrix(1,0,0,1,-0.2157434402332683,-0.21552769679306039)"><svg viewBox="0 0 343 343" data-background-color="#f9f9f9" preserveAspectRatio="xMidYMid meet" height="999" width="1000" xmlns="http://www.w3.org/2000/svg" xmlns:xlink="http://www.w3.org/1999/xlink"><g id="tight-bounds" transform="matrix(1,0,0,1,0.07400000000001228,0.07400000000001228)"><svg viewBox="0 0 342.8515585177538 342.8515585177538" height="342.8515585177538" width="342.8515585177538"><g><svg></svg></g><g><svg viewBox="0 0 342.8515585177538 342.8515585177538" height="342.8515585177538" width="342.8515585177538"><g><path d="M0 171.426c0-94.676 76.75-171.426 171.426-171.426 94.676 0 171.426 76.75 171.426 171.426 0 94.676-76.75 171.426-171.426 171.426-94.676 0-171.426-76.75-171.426-171.426zM171.426 335.425c90.574 0 163.999-73.425 163.999-163.999 0-90.574-73.425-163.999-163.999-163.999-90.574 0-163.999 73.425-163.999 163.999 0 90.574 73.425 163.999 163.999 163.999z" data-fill-palette-color="tertiary" fill="#1e1e1e" stroke="transparent"></path><ellipse rx="164.56874808852183" ry="164.56874808852183" cx="171.4257792588769" cy="171.4257792588769" fill="#1e1e1e" stroke="transparent" stroke-width="0" fill-opacity="1" data-fill-palette-color="tertiary"></ellipse></g><g transform="matrix(1,0,0,1,64.84655864529836,130.2498071974358)"><svg viewBox="0 0 213.15844122715708 82.35194412288217" height="82.35194412288217" width="213.15844122715708"><g><svg viewBox="0 0 213.15844122715708 82.35194412288217" height="82.35194412288217" width="213.15844122715708"><g><svg viewBox="0 0 213.15844122715708 82.35194412288217" height="82.35194412288217" width="213.15844122715708"><g><svg viewBox="0 0 213.15844122715708 82.35194412288217" height="82.35194412288217" width="213.15844122715708"><g id="textblocktransform"><svg viewBox="0 0 213.15844122715708 82.35194412288217" height="82.35194412288217" width="213.15844122715708" id="textblock"><g><svg viewBox="0 0 213.15844122715708 82.35194412288217" height="82.35194412288217" width="213.15844122715708"><g transform="matrix(1,0,0,1,0,0)"><svg width="213.15844122715708" viewBox="0.9000000357627869 -38.900001525878906 102.48999786376953 39.60000228881836" height="82.35194412288217" data-palette-color="#f9f9f9"><path d="M31.9-8.2L34.1-8.2 34.1 0 18.3 0 18.3-8.2 20.4-8.2 20.4-16.4Q20.4-18.05 19.7-18.82 19-19.6 17.6-19.6L17.6-19.6Q14.6-19.6 14.6-16.4L14.6-16.4 14.6-8.2 16.7-8.2 16.7 0 0.9 0 0.9-8.2 3.1-8.2 3.1-19.6 0.9-19.6 0.9-27.8 14.6-27.8 14.6-23.9Q18.2-28.5 23.6-28.5L23.6-28.5Q27.75-28.5 29.83-25.9 31.9-23.3 31.9-18.75L31.9-18.75 31.9-8.2ZM66.4-8.2L68.6-8.2 68.6 0 54.9 0 54.9-3.9Q51.3 0.7 45.9 0.7L45.9 0.7Q41.75 0.7 39.67-1.9 37.6-4.5 37.6-9.05L37.6-9.05 37.6-19.6 35.4-19.6 35.4-27.8 49.1-27.8 49.1-11.4Q49.1-9.75 49.82-8.97 50.55-8.2 52-8.2L52-8.2Q53.45-8.2 54.17-8.97 54.9-9.75 54.9-11.4L54.9-11.4 54.9-19.6 52.2-19.6 52.2-27.8 66.4-27.8 66.4-8.2ZM85.9 0.05L70 0.05 70-8.2 72.2-8.2 72.2-30.7 70-30.7 70-38.9 83.7-38.9 83.7-8.2 85.9-8.2 85.9 0.05ZM103.39 0.05L87.49 0.05 87.49-8.2 89.69-8.2 89.69-30.7 87.49-30.7 87.49-38.9 101.19-38.9 101.19-8.2 103.39-8.2 103.39 0.05Z" opacity="1" transform="matrix(1,0,0,1,0,0)" fill="#f9f9f9" class="undefined-text-0" data-fill-palette-color="quaternary" id="text-0"></path></svg></g></svg></g></svg></g></svg></g><g></g></svg></g></svg></g></svg></g></svg></g><defs></defs></svg><rect width="342.8515585177538" height="342.8515585177538" fill="none" stroke="none" visibility="hidden"></rect></g></svg></g></svg>